#!OML:ASF E:\Mandelcareful walks\Project 1\Capture day 1\Session 1\Subject1.ASF
:FULLY-SPECIFIED
:DEGREES
980
root -22.2303 14.8033 2.56261 199.2 -6.96792 180.429
lowerback 29.5556 3.18254 -2.41049
upperback 6.7152 1.52137 -2.52942
thorax -8.71888 0.107076 -1.90336
lowerneck -26.462 12.5719 7.60469
upperneck 14.3345 17.3434 -13.1666
head 10.8044 6.85344 -2.81378
rclavicle -2.26615e-014 4.85035e-014
rhumerus -25.4222 11.7399 -91.3101
rradius 35.1294
rwrist -59.5137
rhand 9.85838 -40.4059
rfingers 7.12502
rthumb 34.992 -66.9638
lclavicle -2.26615e-014 4.85035e-014
lhumerus -176.678 -97.8353 273.615
lradius 48.4478
lwrist 2.87161
lhand -13.9337 -10.249
lfingers 7.12502
lthumb 12.193 19.3756
rfemur -43.3912 -3.74639 -0.999891
rtibia 53.4864
rfoot -19.8569 -17.3204
rtoes -15.6444
lfemur -54.0966 14.0145 -20.1137
ltibia 68.4299
lfoot -26.5799 9.9205
ltoes -17.6525
981
root -22.3382 14.8243 2.50362 199.254 -6.17057 180.611
lowerback 29.1964 3.19367 -2.65589
upperback 6.68072 1.50735 -2.40497
thorax -8.59527 0.111309 -1.60757
lowerneck -26.8771 12.1743 7.2264
upperneck 14.9815 16.8324 -12.4993
head 10.9458 6.63598 -2.61397
rclavicle -5.32743e-014 1.70955e-014
rhumerus -25.4365 12.3066 -91.2849
rradius 35.5138
rwrist -59.6554
rhand 8.10037 -39.9318
rfingers 7.12502
rthumb 33.3225 -66.8634
lclavicle -5.32743e-014 1.70955e-014
lhumerus -176.825 -97.9847 273.691
lradius 48.6533
lwrist 2.53346
lhand -15.051 -9.43712
lfingers 7.12502
lthumb 11.1155 20.2485
rfemur -44.5547 -4.55314 0.415394
rtibia 53.8132
rfoot -18.4063 -17.7
rtoes -20.8466
lfemur -53.5479 14.2343 -20.4243
ltibia 68.2214
lfoot -27.0157 10.6876
ltoes -17.9688
982
root -22.4553 14.8601 2.42598 198.77 -5.06238 180.729
lowerback 29.4663 3.35516 -2.6675
upperback 6.73654 1.63735 -2.50392
thorax -8.65967 0.150749 -1.76313
lowerneck -27.0561 11.8008 7.36506
upperneck 15.3919 16.2318 -12.1992
head 11.0433 6.38713 -2.64544
rclavicle 4.21423e-014 -3.4191e-014
rhumerus -25.4984 12.2051 -91.398
rradius 35.9993
rwrist -59.6586
rhand 9.07394 -39.5089
rfingers 7.12502
rthumb 34.2475 -66.2374
lclavicle 4.21423e-014 -3.4191e-014
lhumerus -176.956 -97.6505 273.573
lradius 48.9343
lwrist 2.13011
lhand -16.2789 -9.38263
lfingers 7.12502
lthumb 9.93111 20.3631
rfemur -45.064 -4.86119 1.30124
rtibia 54.1327
rfoot -18.0273 -16.7629
rtoes -21.7481
lfemur -52.1281 14.4282 -20.7406
ltibia 67.8686
lfoot -27.5441 11.7604
ltoes -18.4843
983
root -22.5555 14.8961 2.36656 198.66 -4.44343 180.853
lowerback 29.4202 3.3306 -2.49399
upperback 6.78987 1.64575 -2.48595
thorax -8.57127 0.144536 -1.84212
lowerneck -27.3825 11.5023 7.51114
upperneck 15.6811 15.73 -12.0073
head 11.145 6.16781 -2.69201
rclavicle 1.35174e-014 -8.78628e-014
rhumerus -25.4623 12.238 -91.4072
rradius 36.71
rwrist -60.122
rhand 9.61789 -39.6845
rfingers 7.12502
rthumb 34.7638 -66.2954
lclavicle 1.35174e-014 -8.78628e-014
lhumerus -175.532 -97.1827 271.941
lradius 49.3391
lwrist 2.04089
lhand -17.0247 -10.2441
lfingers 7.12502
lthumb 9.21149 19.5347
rfemur -45.9043 -5.30228 2.1885
rtibia 54.5708
rfoot -18.8324 -15.1533
rtoes -16.5084
lfemur -51.4245 14.4748 -20.9615
ltibia 67.5231
lfoot -27.7858 12.7042
ltoes -19.0407
984
root -22.6415 14.9411 2.30294 198.52 -3.72695 181.102
lowerback 29.2491 3.34515 -2.52736
upperback 6.90523 1.66584 -2.27135
thorax -8.36556 0.145804 -1.57994
lowerneck -27.7432 11.2975 7.30709
upperneck 15.932 15.4507 -11.6853
head 11.2196 6.04384 -2.59311
rclavicle -4.45278e-014 -9.93923e-015
rhumerus -25.3104 12.7392 -91.3378
rradius 37.3305
rwrist -60.5841
rhand 10.4913 -40.05
rfingers 7.12502
rthumb 35.5921 -66.4657
lclavicle -4.45278e-014 -9.93923e-015
lhumerus -174.026 -97.6151 270.373
lradius 49.8485
lwrist 0.177151
lhand -14.8461 -10.6481
lfingers 7.12502
lthumb 11.3132 19.0268
rfemur -46.7756 -5.42023 3.25956
rtibia 55.0357
rfoot -19.8181 -13.6103
rtoes -9.57225
lfemur -50.736 14.7355 -20.9447
ltibia 67.2031
lfoot -28.1355 13.208
ltoes -17.6312
985
root -22.7283 14.9787 2.2339 198.352 -2.91041 181.093
lowerback 29.1959 3.3095 -2.68644
upperback 6.98396 1.5713 -2.08613
thorax -8.26296 0.0931186 -1.24272
lowerneck -27.9556 11.1306 6.91016
upperneck 16.1123 15.3193 -11.4443
head 11.2529 5.97171 -2.46849
rclavicle 1.11319e-014 3.37934e-014
rhumerus -25.1311 13.4633 -91.2364
rradius 37.7523
rwrist -60.682
rhand 11.5583 -40.2318
rfingers 7.12502
rthumb 36.6028 -66.3979
lclavicle 1.11319e-014 3.37934e-014
lhumerus -172.821 -97.7284 269.099
lradius 50.3546
lwrist 0.10851
lhand -14.5101 -9.7867
lfingers 7.12502
lthumb 11.6373 19.8701
rfemur -47.6683 -5.92077 4.38303
rtibia 55.5908
rfoot -19.9073 -12.6941
rtoes -8.18032
lfemur -49.9382 15.0608 -21.2666
ltibia 66.882
lfoot -28.5946 13.5096
ltoes -16.6876
986
root -22.81 14.9906 2.16649 198.372 -1.98946 180.66
lowerback 29.0854 3.23277 -3.17691
upperback 6.97792 1.33286 -1.99322
thorax -8.23404 -0.0165861 -0.769124
lowerneck -28.0528 11.0248 6.52203
upperneck 16.2056 15.3175 -11.41
head 11.2708 5.93763 -2.39628
rclavicle 1.98785e-014 -7.15625e-014
rhumerus -24.9402 14.3622 -91.0771
rradius 38.0934
rwrist -60.6525
rhand 11.5307 -39.9911
rfingers 7.12502
rthumb 36.5767 -66.1638
lclavicle 1.98785e-014 -7.15625e-014
lhumerus -171.468 -97.7781 267.679
lradius 50.7916
lwrist 0.593669
lhand -15.9259 -9.70251
lfingers 7.12502
lthumb 10.2716 20.0267
rfemur -48.9398 -7.23693 5.69124
rtibia 56.1792
rfoot -18.4953 -12.9385
rtoes -14.5532
lfemur -49.3582 15.3659 -22.1738
ltibia 66.6237
lfoot -29.2278 13.9241
ltoes -17.433
987
root -22.8861 15.0172 2.1021 198.458 -1.13338 180.25
lowerback 28.9215 3.14107 -3.49364
upperback 6.87044 1.1465 -1.98382
thorax -8.28279 -0.0919827 -0.509463
lowerneck -27.9529 10.9855 6.86998
upperneck 16.3478 15.2452 -11.7796
head 11.3688 5.87446 -2.59894
rclavicle -1.19271e-015 9.54166e-015
rhumerus -24.9136 14.8314 -91.0888
rradius 38.3845
rwrist -60.8501
rhand 10.8283 -39.7934
rfingers 7.12502
rthumb 35.9115 -66.1316
lclavicle -1.19271e-015 9.54166e-015
lhumerus -170.746 -97.546 266.755
lradius 51.1475
lwrist 0.760575
lhand -17.8993 -10.3725
lfingers 7.12502
lthumb 8.36756 19.4418
rfemur -50.3512 -8.03606 6.59652
rtibia 56.7924
rfoot -17.9417 -12.4443
rtoes -14.5454
lfemur -48.8322 15.5821 -23.0534
ltibia 66.3052
lfoot -29.8676 14.3758
ltoes -17.9888
988
root -22.9522 15.0316 2.03745 198.619 -0.230295 180.034
lowerback 28.6136 3.10931 -3.63818
upperback 6.84992 1.09746 -1.9123
thorax -8.16013 -0.109996 -0.323981
lowerneck -28.2414 10.8545 6.82417
upperneck 16.5438 15.0898 -11.7869
head 11.4745 5.77611 -2.6193
rclavicle 9.14409e-015 -1.03368e-014
rhumerus -24.8896 15.5921 -91.1517
rradius 39.0538
rwrist -61.9102
rhand 10.3495 -40.3014
rfingers 7.12502
rthumb 35.4578 -66.7493
lclavicle 9.14409e-015 -1.03368e-014
lhumerus -167.769 -97.3027 263.631
lradius 51.5608
lwrist 0.502976
lhand -18.2349 -10.5536
lfingers 7.12502
lthumb 8.04363 19.2733
rfemur -51.786 -8.39392 7.62164
rtibia 57.4122
rfoot -17.6771 -12.176
rtoes -13.9128
lfemur -48.4939 15.9651 -23.748
ltibia 66.0489
lfoot -30.2692 14.7556
ltoes -18.6034
989
root -23.0139 15.0353 1.96514 198.722 0.535637 179.74
lowerback 28.2919 1.04522 -4.67104
upperback 6.7798 1.52237 -2.06235
thorax -8.01476 1.47255 -0.224882
lowerneck -28.5247 10.6729 6.54212
upperneck 16.7365 14.8978 -11.5636
head 11.5314 5.67801 -2.52862
rclavicle -2.50469e-014 -2.66371e-014
rhumerus -25.076 16.4414 -91.281
rradius 39.9759
rwrist -62.6958
rhand 10.2558 -40.5545
rfingers 7.12502
rthumb 35.3689 -67.0236
lclavicle -2.50469e-014 -2.66371e-014
lhumerus -164.711 -97.1002 260.406
lradius 51.9047
lwrist 0.311972
lhand -18.3144 -10.7287
lfingers 7.12502
lthumb 7.96694 19.1012
rfemur -53.0631 -8.92857 8.67636
rtibia 58.0287
rfoot -17.4277 -12.1249
rtoes -12.6823
lfemur -48.0424 16.2542 -24.4794
ltibia 65.7742
lfoot -30.3392 15.3956
ltoes -20.0864
990
root -23.0761 15.0385 1.88617 198.807 1.3005 179.302
lowerback 28.0049 0.927309 -4.63441
upperback 6.78744 1.36765 -2.11739
thorax -7.85963 1.38706 -0.242675
lowerneck -28.7249 10.5833 6.63445
upperneck 16.8674 14.7376 -11.547
head 11.6053 5.59929 -2.56491
rclavicle 2.0276e-014 -3.29983e-014
rhumerus -25.1067 16.7404 -91.3928
rradius 40.619
rwrist -62.7234
rhand 10.0878 -40.3592
rfingers 7.12502
rthumb 35.2096 -66.866
lclavicle 2.0276e-014 -3.29983e-014
lhumerus -162.424 -96.8294 257.923
lradius 52.145
lwrist 0.00725515
lhand -18.9067 -10.6285
lfingers 7.12502
lthumb 7.39519 19.2223
rfemur -54.339 -9.62272 9.68408
rtibia 58.6251
rfoot -17.0276 -12.4549
rtoes -11.102
lfemur -47.5279 16.4792 -25.3812
ltibia 65.4987
lfoot -30.27 16.341
ltoes -22.142
